<mxfile host="app.diagrams.net" modified="2023-03-26T18:26:58.106Z" agent="Mozilla/5.0 (Windows NT 10.0; Win64; x64) AppleWebKit/537.36 (KHTML, like Gecko) Chrome/111.0.0.0 Safari/537.36" version="21.1.1" etag="dSR3v9LMaI1lqf3lam2q" type="github">
  <diagram name="Seite-1" id="tYQB0XVTe4Oov56MOuD2">
    <mxGraphModel>
      <root>
        <mxCell id="0" />
        <mxCell id="1" parent="0" />
      </root>
    </mxGraphModel>
  </diagram>
</mxfile>
